<svg xmlns="http://www.w3.org/2000/svg" xmlns:xlink="http://www.w3.org/1999/xlink" width="1920" zoomAndPan="magnify" viewBox="0 0 1440 809.999993" height="1080" preserveAspectRatio="xMidYMid meet" version="1.0"><defs><clipPath id="4ad7659932"><path d="M 580.789062 219.066406 L 877.789062 219.066406 L 877.789062 612.816406 L 580.789062 612.816406 Z M 580.789062 219.066406 " clip-rule="nonzero"/></clipPath></defs><g clip-path="url(#4ad7659932)"><path fill="#000000" d="M 832.035156 372.089844 L 829.300781 372.089844 L 829.300781 319.089844 C 829.300781 263.945312 784.4375 219.066406 729.289062 219.066406 C 674.136719 219.066406 629.273438 263.945312 629.273438 319.101562 L 629.273438 372.101562 L 626.542969 372.101562 C 601.339844 372.101562 580.824219 392.609375 580.824219 417.832031 L 580.824219 567.097656 C 580.824219 592.320312 601.339844 612.828125 626.542969 612.828125 L 832.023438 612.828125 C 857.226562 612.828125 877.738281 592.320312 877.738281 567.097656 L 877.738281 417.820312 C 877.75 392.597656 857.234375 372.089844 832.035156 372.089844 Z M 638.101562 319.101562 C 638.101562 268.804688 679.003906 227.886719 729.289062 227.886719 C 779.570312 227.886719 820.472656 268.804688 820.472656 319.101562 L 820.472656 372.101562 L 786.8125 372.101562 L 786.8125 319.574219 C 786.8125 287.847656 761 262.03125 729.289062 262.03125 C 697.574219 262.03125 671.761719 287.847656 671.761719 319.574219 L 671.761719 372.101562 L 638.101562 372.101562 Z M 777.996094 372.089844 L 680.578125 372.089844 L 680.578125 319.5625 C 680.578125 292.699219 702.429688 270.828125 729.289062 270.828125 C 756.144531 270.828125 777.996094 292.6875 777.996094 319.5625 Z M 868.910156 567.085938 C 868.910156 587.425781 852.367188 603.996094 832.023438 603.996094 L 626.542969 603.996094 C 606.207031 603.996094 589.652344 587.425781 589.652344 567.085938 L 589.652344 417.820312 C 589.652344 397.480469 606.195312 380.910156 626.542969 380.910156 L 832.023438 380.910156 C 852.355469 380.910156 868.910156 397.480469 868.910156 417.820312 Z M 868.910156 567.085938 " fill-opacity="1" fill-rule="nonzero"/></g><path fill="#000000" d="M 755.457031 503.0625 C 755.457031 503.050781 755.457031 503.050781 755.457031 503.050781 C 763.417969 494.074219 766.1875 481.640625 762.847656 469.785156 C 759.417969 457.589844 749.925781 448.632812 737.476562 445.8125 C 726.8125 443.390625 715.882812 445.820312 707.503906 452.480469 C 699.125 459.164062 694.324219 469.144531 694.324219 479.851562 C 694.324219 490.191406 698.855469 499.957031 706.761719 506.640625 C 708.378906 508 708.953125 509.96875 708.246094 511.644531 L 699.417969 532.527344 C 697.921875 536.058594 698.292969 540.085938 700.40625 543.292969 C 702.53125 546.488281 706.085938 548.398438 709.933594 548.398438 L 748.652344 548.398438 C 752.5 548.398438 756.054688 546.5 758.167969 543.292969 C 760.292969 540.074219 760.664062 536.058594 759.167969 532.503906 L 750.441406 511.882812 C 749.65625 510.058594 750.261719 507.921875 751.960938 506.492188 C 753.195312 505.425781 754.367188 504.277344 755.457031 503.0625 Z M 742.3125 515.335938 L 751.050781 535.933594 C 751.53125 537.117188 751.050781 538.050781 750.824219 538.410156 C 750.585938 538.746094 749.914062 539.566406 748.652344 539.566406 L 709.933594 539.566406 C 708.671875 539.566406 708 538.746094 707.761719 538.410156 C 707.539062 538.050781 707.054688 537.117188 707.546875 535.957031 L 716.367188 515.097656 C 718.59375 509.855469 717.019531 503.75 712.464844 499.890625 C 706.546875 494.882812 703.152344 487.582031 703.152344 479.851562 C 703.152344 471.84375 706.738281 464.382812 713.015625 459.390625 C 717.679688 455.65625 723.417969 453.707031 729.355469 453.707031 C 731.402344 453.707031 733.460938 453.933594 735.519531 454.417969 C 744.773438 456.519531 751.824219 463.160156 754.367188 472.179688 C 756.917969 481.257812 754.917969 490.382812 748.867188 497.210938 C 748.058594 498.113281 747.191406 498.96875 746.257812 499.765625 C 741.625 503.691406 740.039062 509.957031 742.3125 515.335938 Z M 742.3125 515.335938 " fill-opacity="1" fill-rule="nonzero"/></svg>